<?xml version="1.0" encoding="utf-8"?>
<!-- Generator: Adobe Illustrator 28.0.0, SVG Export Plug-In . SVG Version: 6.00 Build 0)  -->
<svg version="1.1" id="Layer_1" xmlns="http://www.w3.org/2000/svg" xmlns:xlink="http://www.w3.org/1999/xlink" x="0px" y="0px"
	 viewBox="0 0 449.7 218.6" style="enable-background:new 0 0 449.7 218.6;" xml:space="preserve">
<style type="text/css">
	.st0{fill:#CF690F;}
	.st1{fill:none;}
	.st2{fill:#8A3322;}
	.st3{font-family:'Modak';}
	.st4{font-size:76px;}
	.st5{fill:#FFAA01;}
</style>
<g>
	<path class="st0" d="M367.6,218.6H82.1c-20.8,0-37.7-16.9-37.7-37.7l0,0c0-6.2,5-11.2,11.2-11.2H394c6.2,0,11.2,5,11.2,11.2l0,0
		C405.2,201.7,388.4,218.6,367.6,218.6z"/>
	<path class="st0" d="M400.7,109H49c-2.5,0-4.6-2.1-4.6-4.6l0,0C44.4,46.8,91.2,0,148.8,0h152c57.6,0,104.4,46.8,104.4,104.4l0,0
		C405.2,106.9,403.2,109,400.7,109z"/>
	<rect y="101.7" class="st1" width="449.7" height="73.6"/>
	<text transform="matrix(0.98 0 0 1 28.8168 163.384)" class="st2 st3 st4">SUPERSUBS</text>
</g>
<path class="st5" d="M143.7,0c0,0-3.8,43.2,8.9,56.3c0,0-4.5-37.8,9.5-56.3"/>
<path class="st5" d="M216.4,0c0,0-3.8,43.2,8.9,56.3c0,0-1.4-37.8,12.5-56.3"/>
<path class="st5" d="M283.2,0c0,0-3.8,34.8,9,45.4c0,0,4-30.5,18-45.4"/>
<path class="st5" d="M70.9,178.2h121.2c0.2,0,0.4,0.2,0.4,0.4v3.9c0,0.2-0.2,0.4-0.4,0.4H70.9c-0.2,0-0.4-0.2-0.4-0.4v-3.9
	C70.4,178.4,70.6,178.2,70.9,178.2z"/>
</svg>
