<?xml version="1.0" encoding="utf-8"?>
<!-- Generator: Adobe Illustrator 27.6.1, SVG Export Plug-In . SVG Version: 6.00 Build 0)  -->
<svg version="1.1" id="Layer_1" xmlns="http://www.w3.org/2000/svg" xmlns:xlink="http://www.w3.org/1999/xlink" x="0px" y="0px"
	 viewBox="0 0 24 24" style="enable-background:new 0 0 24 24;" xml:space="preserve">
<style type="text/css">
	.st0{fill:none;stroke:#512314;stroke-width:2;stroke-linecap:round;stroke-linejoin:round;}
</style>
<path class="st0" d="M6,2L3,6v14c0,0.5,0.2,1,0.6,1.4C4,21.8,4.5,22,5,22h14c0.5,0,1-0.2,1.4-0.6C20.8,21,21,20.5,21,20V6l-3-4H6z"
	/>
<path class="st0" d="M3,6h18"/>
<path class="st0" d="M16,10c0,1.1-0.4,2.1-1.2,2.8C14.1,13.6,13.1,14,12,14s-2.1-0.4-2.8-1.2C8.4,12.1,8,11.1,8,10"/>
</svg>
